<?xml version="1.0" encoding="UTF-8" standalone="no"?><!DOCTYPE svg PUBLIC "-//W3C//DTD SVG 1.1//EN" "http://www.w3.org/Graphics/SVG/1.1/DTD/svg11.dtd"><svg width="100%" height="100%" viewBox="0 0 693 1050" version="1.1" xmlns="http://www.w3.org/2000/svg" xmlns:xlink="http://www.w3.org/1999/xlink" xml:space="preserve" xmlns:serif="http://www.serif.com/" style="fill-rule:evenodd;clip-rule:evenodd;stroke-linejoin:round;stroke-miterlimit:1.41421;fill:red"><path d="M497.854,702.57l173.451,134.59l21.16,117.33l-50.76,66.64l-232.754,28.13l-150.428,-53.4l0.062,-5.63l98.569,-39.91l140.705,-192.68l-0.005,-55.07Zm-275.519,238.58l-44.325,14.77l-37.174,-15.01l-140.601,-192.79l-0.235,-59.34l66.487,-51.59l0.177,-148.47l59.278,-59.22l15.012,0l81.383,58.51l35.4,0l81.381,-58.51l15.013,0l59.279,59.22l0.18,148.47l66.486,51.59l-0.239,59.34l-140.597,192.79l-37.176,15.01l-44.325,-14.77l-35.404,0Zm17.703,-473.83l-18.248,0l-182.064,-132.5l20.017,-87.22l-36.699,-247.59l21.446,0l133.453,126.05l124.188,0l133.453,-126.06l21.446,0l-36.697,247.59l20.017,87.23l-182.067,132.49l-18.245,0l0,0.01Z"/></svg>